<svg xmlns="http://www.w3.org/2000/svg" width="512" height="512"><g fill-rule="evenodd" clip-rule="evenodd"><path d="M441.37 188.26h-41.64V48.41c0-26.7-21.71-48.41-48.4-48.41H160.67a48.46 48.46 0 0 0-48.4 48.4v139.86H70.63a41.53 41.53 0 0 0-41.48 41.48v159.18a41.53 41.53 0 0 0 41.48 41.48h14.44V502a10 10 0 0 0 10 10h54.4a10 10 0 0 0 10-10v-71.6h193.06V502a10 10 0 0 0 10 10h54.4a10 10 0 0 0 10-10v-71.6h14.43a41.53 41.53 0 0 0 41.49-41.48V229.74a41.53 41.53 0 0 0-41.49-41.48zM132.26 48.41A28.44 28.44 0 0 1 160.66 20h190.66a28.44 28.44 0 0 1 28.4 28.4v278.04a38.71 38.71 0 0 0-18.96-4.95H296a10 10 0 0 0 0 20h64.77c10.46 0 18.96 8.51 18.96 18.97v49.94H132.26v-49.94c0-10.46 8.51-18.97 18.97-18.97H216a10 10 0 0 0 0-20h-64.77c-6.88 0-13.35 1.8-18.97 4.95V48.4zM49.14 388.9V229.75a21.5 21.5 0 0 1 21.48-21.48h41.63V410.4H70.63a21.5 21.5 0 0 1-21.48-21.48zM139.46 492h-34.4v-61.6h34.4V492zm267.48 0h-34.4v-61.6h34.4V492zm55.9-103.08a21.5 21.5 0 0 1-21.47 21.48h-41.64V208.26h41.64a21.5 21.5 0 0 1 21.48 21.48v159.18z"/><path d="M256 341.5c5.5 0 10-4.5 10-10 0-5.52-4.5-10-10-10s-10 4.48-10 10c0 5.5 4.5 10 10 10z"/></g></svg>