<svg xmlns="http://www.w3.org/2000/svg" viewBox="0 0 512 512"><path d="M510.36 215.57L428.37 90.55a10 10 0 0 0-8.36-4.52H92.38a10 10 0 0 0-8.35 4.5L1.9 215.18a10 10 0 0 0 .57 12.46l41.62 47.53a10 10 0 1 0 15.05-13.18l-27.1-30.94h134.5l67.59 230.75-76.38-87.2a10 10 0 1 0-15.04 13.17L248.5 508.56a10 10 0 0 0 15.04 0l112.63-128.63a10 10 0 1 0-15.04-13.18l-83.21 95.04 67.58-230.74h134.45l-62.19 71.02a10 10 0 1 0 15.05 13.17l76.7-87.6a10 10 0 0 0 .84-12.07zm-481.79-4.51l63.79-96.83 63.5 96.83H28.56zm82.32-105.03h126.63l-63.32 96.54-63.3-96.54zm145.14 8.23l63.48 96.8H192.56l63.47-96.8zm0 351.14l-68.64-234.35h137.28L256.03 465.4zm81.99-262.58l-63.48-96.8H401.5l-63.48 96.8zm18.52 8.24l63.47-96.8 63.48 96.8H356.54z"/><path d="M157.19 327.02a46.83 46.83 0 0 1-46.78-46.78 10 10 0 0 0-20 0 46.83 46.83 0 0 1-46.77 46.78 10 10 0 0 0 0 20 46.83 46.83 0 0 1 46.77 46.77 10 10 0 0 0 20 0 46.83 46.83 0 0 1 46.78-46.77 10 10 0 0 0 0-20zm-56.78 31.66a67.3 67.3 0 0 0-21.66-21.66 67.3 67.3 0 0 0 21.66-21.66 67.3 67.3 0 0 0 21.66 21.66 67.3 67.3 0 0 0-21.66 21.66zM502 40.02c-16.54 0-30-13.45-30-30a10 10 0 0 0-20 0c0 16.55-13.45 30-30 30a10 10 0 0 0 0 20c16.55 0 30 13.46 30 30a10 10 0 0 0 20 0c0-16.54 13.46-30 30-30a10 10 0 0 0 0-20zm-40 20.03a50.43 50.43 0 0 0-10.03-10.03A50.43 50.43 0 0 0 462 40a50.43 50.43 0 0 0 10.03 10.03 50.38 50.38 0 0 0-10.02 10.03zM402.78 335.37a10.03 10.03 0 0 0-14.13 0c-1.86 1.86-2.93 4.44-2.93 7.07s1.06 5.2 2.93 7.07a10.07 10.07 0 0 0 7.07 2.93c2.63 0 5.2-1.07 7.06-2.93 1.86-1.86 2.93-4.44 2.93-7.07s-1.07-5.2-2.93-7.07z"/></svg>