<svg xmlns="http://www.w3.org/2000/svg" viewBox="0 0 512 512" fill="#eee"><path d="M502 492h-44v-79a10 10 0 0 0-20 0v79H318V302a10 10 0 0 0-10-10H204a10 10 0 0 0-10 10v190H74V266h3.85a10 10 0 0 0 7.07-2.93L256 92l171.08 171.08a10 10 0 0 0 7.07 2.93H438v75a10 10 0 0 0 20 0v-75h44a10 10 0 0 0 7.07-17.07l-246-246a10 10 0 0 0-14.14 0l-94 94a10 10 0 0 0 14.14 14.14L256 24.14 477.86 246h-39.57L263.07 70.78a10 10 0 0 0-14.14 0L73.7 246H34.14l78.93-78.93a10 10 0 0 0-14.14-14.14l-96 96A10 10 0 0 0 10 266h44v226H10a10 10 0 0 0 0 20h492a10 10 0 0 0 0-20zm-204 0h-84V312h84v180z"/><path d="M406 292h-56a10 10 0 0 0-10 10v100a10 10 0 0 0 10 10h56a10 10 0 0 0 10-10V302a10 10 0 0 0-10-10zm-10 100h-36v-80h36v80zM162 292h-56a10 10 0 0 0-10 10v100a10 10 0 0 0 10 10h56a10 10 0 0 0 10-10V302a10 10 0 0 0-10-10zm-10 100h-36v-80h36v80zM256 164.32c-25.36 0-46 20.64-46 46s20.64 46 46 46 46-20.63 46-46-20.63-46-46-46zm0 72c-14.34 0-26-11.66-26-26s11.66-26 26-26 26 11.67 26 26-11.66 26-26 26zM244.07 394.93A10.07 10.07 0 0 0 237 392c-2.63 0-5.2 1.07-7.07 2.93-1.86 1.86-2.93 4.44-2.93 7.07s1.07 5.21 2.93 7.07c1.86 1.86 4.44 2.93 7.07 2.93s5.21-1.07 7.07-2.93c1.86-1.86 2.93-4.44 2.93-7.07s-1.07-5.2-2.93-7.07zM140.07 125.93c-1.86-1.86-4.44-2.93-7.07-2.93s-5.2 1.07-7.07 2.93c-1.86 1.86-2.93 4.44-2.93 7.07s1.07 5.21 2.93 7.07c1.86 1.86 4.44 2.93 7.07 2.93s5.21-1.07 7.07-2.93c1.86-1.86 2.93-4.44 2.93-7.07s-1.07-5.2-2.93-7.07zM455.07 367.26a10.08 10.08 0 0 0-7.07-2.93c-2.63 0-5.2 1.07-7.07 2.93-1.86 1.87-2.93 4.44-2.93 7.07s1.07 5.21 2.93 7.08c1.86 1.86 4.44 2.92 7.07 2.92s5.21-1.06 7.07-2.92a10.1 10.1 0 0 0 2.93-7.08c0-2.63-1.07-5.2-2.93-7.07z"/></svg>