<svg xmlns="http://www.w3.org/2000/svg" viewBox="-75 0 495 496" fill="#eee"><path d="M244.47 232.33a24.3 24.3 0 0 0-11.97 1.04v-8.51c0-1.09-.14-2.16-.28-3.21A120.17 120.17 0 0 0 288.5 120c0-66.17-53.83-120-120-120s-120 53.83-120 120c0 47.54 28.73 90.97 72 109.92v18.29a39.6 39.6 0 0 0-24-8.21c-8.82 0-16 7.18-16 16v103.14a40 40 0 0 0 5.7 20.58l18.3 30.5V448h-16v48h160v-48h-16v-37.2l23.23-29.03a40.24 40.24 0 0 0 8.77-25v-99.91c0-12.13-8.6-22.68-20.03-24.53zM64.5 120c0-57.34 46.66-104 104-104s104 46.66 104 104c0 35.27-17.94 68.05-47.26 87.17a23.04 23.04 0 0 0-12.77-6.84 24.16 24.16 0 0 0-8.78.21c7.3-3.19 14.2-7.26 20.5-12.41l-10.15-12.39a71.14 71.14 0 0 1-23.75 12.79 22.54 22.54 0 0 0-9.83-4.2 24.4 24.4 0 0 0-11.97 1.04V160c0-6-2.33-11.62-6.29-16h38.3c13.23 0 24-10.77 24-24s-10.77-24-24-24h-64c-13.23 0-24 10.77-24 24a23.96 23.96 0 0 0 15.9 22.5 25.41 25.41 0 0 0-7.9 18.36v12.59a72.16 72.16 0 0 1-24-53.45 72.14 72.14 0 0 1 16.26-45.55L100.38 64.3A88.18 88.18 0 0 0 80.5 120c0 29.7 15.29 57.37 40 73.54v18.65c-33.9-17.73-56-53.38-56-92.19zm72 8a8.01 8.01 0 0 1 0-16h64a8.01 8.01 0 0 1 0 16zm96 352h-128v-16h128zm16-123.22c0 5.42-1.86 10.75-5.27 15l-26.73 33.41V448h-96v-42.21l-20.57-34.31c-2.25-3.73-3.43-8-3.43-12.34V256c13.23 0 24 10.77 24 24v40h16V160.86c0-4.3 2.9-8.14 6.6-8.75a8 8 0 0 1 9.4 7.89v160h16V208a8 8 0 0 1 9.4-7.89c3.7.6 6.6 4.45 6.6 8.75V320h16v-96a8 8 0 0 1 9.4-7.89c3.7.6 6.6 4.45 6.6 8.75V320h16v-64a8 8 0 0 1 9.4-7.89c3.7.6 6.6 4.45 6.6 8.75zm0 0"/><path d="M168.5 48c39.7 0 72 32.3 72 72a72.14 72.14 0 0 1-16.26 45.55l12.38 10.14A88.18 88.18 0 0 0 256.5 120c0-48.52-39.48-88-88-88a88.17 88.17 0 0 0-55.69 19.87l10.15 12.39A72.1 72.1 0 0 1 168.5 48zm0 0M46.56 318.05C37.5 327.12 32.5 339.18 32.5 352s5 24.88 14.06 33.95l11.31-11.32c-6.04-6.04-9.37-14.08-9.37-22.63s3.33-16.59 9.38-22.63zm0 0"/><path d="M35.24 306.74l-11.3-11.3C8.81 310.53.5 330.63.5 352s8.32 41.46 23.43 56.57l11.31-11.31A63.6 63.6 0 0 1 16.5 352a63.6 63.6 0 0 1 18.74-45.26zm0 0M298.44 318.05l-11.31 11.32c6.04 6.04 9.37 14.08 9.37 22.63s-3.33 16.59-9.38 22.63l11.32 11.32c9.07-9.07 14.06-21.13 14.06-33.95s-5-24.88-14.06-33.95zm0 0"/><path d="M321.07 295.43l-11.31 11.31A63.6 63.6 0 0 1 328.5 352a63.6 63.6 0 0 1-18.74 45.26l11.3 11.3c15.12-15.1 23.44-35.2 23.44-56.56s-8.32-41.46-23.43-56.57zm0 0"/></svg>