<svg xmlns="http://www.w3.org/2000/svg" viewBox="0 0 512 512"><path d="M368.41 463.07a10 10 0 0 0-13.84-2.92A196.49 196.49 0 0 1 247.05 492C138.28 492 49.8 403.5 49.8 294.73c0-39.5 11.63-77.6 33.63-110.2a10 10 0 1 0-16.58-11.2 216.21 216.21 0 0 0-37.05 121.4c0 58.04 22.6 112.6 63.63 153.63S189.02 512 247.05 512c42.24 0 83.2-12.13 118.44-35.09a10 10 0 0 0 2.92-13.84zM402 432.75a10 10 0 0 0-14.14.14l-.33.34a10 10 0 0 0 14.2 14.08l.41-.42a10 10 0 0 0-.13-14.14zM442.51 163.89a9.97 9.97 0 0 0 14.14 0l16.66-16.66a30.48 30.48 0 0 0 0-43.06l-35.7-35.7a30.25 30.25 0 0 0-21.53-8.91 30.25 30.25 0 0 0-21.52 8.91L377.9 85.13a10 10 0 0 0 0 14.14l4.73 4.73-11.98 11.98a214.76 214.76 0 0 0-84.6-35.03V64h22a10 10 0 0 0 10-10V10a10 10 0 0 0-10-10h-122a10 10 0 0 0-10 10v44a10 10 0 0 0 10 10h22v16.97a215.96 215.96 0 0 0-80.46 32.26 10 10 0 0 0 11.02 16.7 196.41 196.41 0 0 1 108.45-32.46c108.77 0 197.26 88.5 197.26 197.27 0 36.88-10.24 72.85-29.62 104.01a10 10 0 0 0 16.99 10.56 216.74 216.74 0 0 0 32.63-114.57c0-44.82-13.48-87.55-38.52-123.6l11.98-11.98 4.73 4.73zm-176.45-85.6a221.44 221.44 0 0 0-38 0V64h38v14.3zm-48-34.29h-22V20h102v24h-80zm195.47 111.13a221.74 221.74 0 0 0-12.85-14.03 221.8 221.8 0 0 0-14.02-12.85l10.1-10.1 26.88 26.87-10.1 10.1zm-9.69-58.2l-4.73-4.72 9.59-9.6a10.37 10.37 0 0 1 7.38-3.05c2.8 0 5.42 1.09 7.39 3.06l35.7 35.7a10.46 10.46 0 0 1 0 14.77l-9.59 9.59-4.71-4.72-.02-.01-41-41.02z"/><path d="M247.06 153a10 10 0 0 0-10 10v22a10 10 0 1 0 20 0v-22a10 10 0 0 0-10-10zM347.28 194.5a10.07 10.07 0 0 0-7.07-2.92c-2.63 0-5.21 1.07-7.07 2.93a10.08 10.08 0 0 0-2.93 7.07c0 2.64 1.07 5.2 2.93 7.07a10.07 10.07 0 0 0 7.07 2.93c2.63 0 5.2-1.07 7.07-2.93 1.86-1.86 2.93-4.44 2.93-7.07s-1.07-5.21-2.93-7.07zM378.8 284.73h-22a10 10 0 0 0 0 20h22a10 10 0 0 0 0-20zM347.28 380.81a10.07 10.07 0 0 0-7.07-2.93c-2.63 0-5.21 1.07-7.07 2.93a10.08 10.08 0 0 0-2.93 7.07 10.04 10.04 0 0 0 10 10 10.03 10.03 0 0 0 10-10c0-2.63-1.07-5.2-2.93-7.06zM247.06 394.47a10 10 0 0 0-10 10v22a10 10 0 0 0 20 0v-22a10 10 0 0 0-10-10zM160.97 380.81a10.08 10.08 0 0 0-7.07-2.93c-2.63 0-5.21 1.07-7.07 2.93a10.08 10.08 0 0 0-2.93 7.07 10.03 10.03 0 0 0 17.07 7.07 10.06 10.06 0 0 0 2.93-7.07c0-2.63-1.07-5.2-2.93-7.06zM137.31 284.73h-22a10 10 0 0 0 0 20h22a10 10 0 0 0 0-20zM160.97 194.5a10.08 10.08 0 0 0-7.07-2.92c-2.63 0-5.21 1.07-7.07 2.93-1.86 1.86-2.93 4.44-2.93 7.07s1.07 5.2 2.93 7.07a10.07 10.07 0 0 0 7.07 2.93c2.63 0 5.21-1.07 7.07-2.93 1.86-1.86 2.93-4.44 2.93-7.07s-1.07-5.21-2.93-7.07zM325.13 216.65a10 10 0 0 0-12.25-1.48l-82.55 49.98a33.98 33.98 0 1 0 44.33 49.4c.74-.92 1.43-2.12 2-3.11l49.96-82.54a10 10 0 0 0-1.49-12.25zm-65.7 84.63l-.83 1.36a14 14 0 1 1-19.45-19.45l1.36-.82a14.02 14.02 0 0 1 18.92 18.9zm15.62-25.81a34.26 34.26 0 0 0-8.73-8.73l22.12-13.39-13.4 22.12z"/><path d="M247.06 121.5c-95.53 0-173.24 77.71-173.24 173.23s77.71 173.24 173.24 173.24 173.23-77.71 173.23-173.24S342.58 121.5 247.05 121.5zm0 326.47c-84.5 0-153.24-68.74-153.24-153.24S162.56 141.5 247.06 141.5c84.49 0 153.23 68.74 153.23 153.23s-68.74 153.24-153.24 153.24zM108.18 140.5a10.08 10.08 0 0 0-7.07-2.93c-2.63 0-5.21 1.07-7.07 2.93a10.08 10.08 0 0 0-2.93 7.07c0 2.64 1.07 5.2 2.93 7.07a10.07 10.07 0 0 0 7.07 2.93c2.63 0 5.2-1.07 7.07-2.93a10.08 10.08 0 0 0 2.93-7.07c0-2.63-1.07-5.21-2.93-7.07z"/></svg>