<svg xmlns="http://www.w3.org/2000/svg" viewBox="0 0 512 512" fill="#eee"><path d="M512 50c0-16.54-13.46-30-30-30H30C13.46 20 0 33.46 0 50v289.89c0 20.64 3.13 41.1 9.3 60.78l11.33 36.1V482a10 10 0 0 0 20 0v-46.76c0-1.01-.16-2.02-.46-3L28.39 394.7a182.9 182.9 0 0 1-8.39-54.8v-70.45a10.09 10.09 0 0 1 20.15 0v24.5a10 10 0 0 0 20 0v-39.3a10.09 10.09 0 0 1 20.16 0v39.3a10 10 0 0 0 20 0v-52.02a10.09 10.09 0 0 1 20.15 0v52.02a10 10 0 0 0 20 0V176.26a10.09 10.09 0 0 1 20.16 0v145.39a10 10 0 0 0 18.8 4.75L203 282.74a11.11 11.11 0 0 1 14.86-4.67 11.13 11.13 0 0 1 5.82 12.6l-15.28 63.36c-3 12.44-8.36 24-15.91 34.33l-29.95 40.98a10 10 0 0 0-1.92 5.9V482a10 10 0 0 0 20 0v-43.5l28.02-38.34a115.97 115.97 0 0 0 19.2-41.44L236.7 322h38.6l8.86 36.72a115.99 115.99 0 0 0 19.2 41.44l28.02 38.35V482a10 10 0 0 0 20 0v-46.76a10 10 0 0 0-1.92-5.9l-29.95-40.98a96.1 96.1 0 0 1-15.91-34.33l-15.29-63.37a11.13 11.13 0 0 1 5.83-12.59 11.12 11.12 0 0 1 14.86 4.67l23.58 43.66a10 10 0 0 0 18.8-4.75V176.26a10.09 10.09 0 0 1 20.16 0v117.68a10 10 0 0 0 20 0v-52.02a10.09 10.09 0 0 1 20.15 0v52.02a10 10 0 0 0 20 0v-39.3a10.09 10.09 0 0 1 20.15 0v39.3a10 10 0 0 0 20 0v-24.5a10.09 10.09 0 0 1 20.16 0v70.45c0 18.6-2.82 37.05-8.4 54.8l-11.77 37.56a10 10 0 0 0-.46 3V482a10 10 0 0 0 20 0v-45.23l11.32-36.1c6.18-19.69 9.31-40.14 9.31-60.78v-70.46-.29V50zM268.87 295.36l1.6 6.64h-28.95l1.6-6.64A31.03 31.03 0 0 0 232.68 264h46.66a31.03 31.03 0 0 0-10.46 31.36zM492 241.1a29.93 29.93 0 0 0-22.85 1.1 30.12 30.12 0 0 0-40.98-14.39 30.1 30.1 0 0 0-36.64-14.23v-37.32a30.11 30.11 0 0 0-30.07-30.08 30.11 30.11 0 0 0-30.08 30.08v105.82l-4.78-8.85a31.05 31.05 0 0 0-20.91-15.73 10 10 0 0 0-9.36-13.5H227a10 10 0 0 0-9.46 13.2 31 31 0 0 0-32.14 16.03l-4.78 8.85V176.26a30.11 30.11 0 0 0-30.08-30.07 30.11 30.11 0 0 0-30.08 30.07v37.32a30.11 30.11 0 0 0-36.64 14.23 30.12 30.12 0 0 0-40.98 14.39A29.9 29.9 0 0 0 20 241.1V50c0-5.51 4.49-10 10-10h452c5.51 0 10 4.49 10 10v191.1z"/><path d="M107 132H64a10 10 0 0 0 0 20h43a10 10 0 0 0 0-20zM207.26 132h-15.84a10 10 0 0 0 0 20h15.84a10 10 0 0 0 0-20zM81.28 188H64a10 10 0 0 0 0 20h17.27a10 10 0 0 0 0-20zM233.97 188h-18.61a10 10 0 0 0 0 20h18.61a10 10 0 0 0 0-20zM98.55 76H64a10 10 0 0 0 0 20h34.55a10 10 0 0 0 0-20zM207.26 76h-31.68a10 10 0 0 0 0 20h31.68a10 10 0 0 0 0-20zM144.66 78.93a10.05 10.05 0 0 0-14.14 0 10.08 10.08 0 0 0-2.93 7.07 10.1 10.1 0 0 0 2.93 7.08c1.86 1.86 4.44 2.92 7.07 2.92s5.21-1.06 7.07-2.92a10.1 10.1 0 0 0 2.93-7.08c0-2.63-1.07-5.21-2.93-7.07zM270 132h-26.5a10 10 0 0 0 0 20H270a10 10 0 0 0 0-20zM324.57 134.93c-1.86-1.86-4.44-2.93-7.07-2.93s-5.21 1.07-7.07 2.93a10.08 10.08 0 0 0-2.93 7.07 10.03 10.03 0 0 0 10 10 10.03 10.03 0 0 0 10-10c0-2.63-1.07-5.21-2.93-7.07zM448.35 132H410.7a10 10 0 1 0 0 20h37.64a10 10 0 0 0 0-20zM305 188h-20.17a10 10 0 0 0 0 20H305a10 10 0 0 0 0-20zM446.4 188h-18.62a10 10 0 0 0 0 20h18.61a10 10 0 0 0 0-20zM282.5 76H256a10 10 0 0 0 0 20h26.5a10 10 0 0 0 0-20zM448.13 76h-33.1a10 10 0 0 0 0 20h33.1a10 10 0 0 0 0-20zM363.5 76h-21.9a10 10 0 0 0 0 20h21.9a10 10 0 0 0 0-20z"/></svg>