<svg xmlns="http://www.w3.org/2000/svg" width="192" height="192"><g fill="none" fill-rule="evenodd"><path fill="#5181B8" d="M66.56 0h58.88C179.2 0 192 12.8 192 66.56v58.88c0 53.76-12.8 66.56-66.56 66.56H66.56C12.8 192 0 179.2 0 125.44V66.56C0 12.8 12.8 0 66.56 0z"/><path fill="#FFF" d="M157.23 66.15c.9-2.97 0-5.15-4.23-5.15h-14c-3.56 0-5.2 1.88-6.1 3.96 0 0-7.11 17.35-17.2 28.63-3.26 3.26-4.74 4.3-6.52 4.3-.9 0-2.18-1.04-2.18-4V66.14c0-3.56-1.03-5.15-4-5.15H81c-2.22 0-3.56 1.65-3.56 3.22 0 3.37 5.04 4.15 5.56 13.64v20.62c0 4.52-.82 5.34-2.6 5.34-4.74 0-16.29-17.43-23.13-37.38C55.92 62.57 54.57 61 51 61H37c-4 0-4.8 1.88-4.8 3.96 0 3.7 4.75 22.1 22.1 46.42C65.87 128 82.17 137 97 137c8.9 0 10-2 10-5.44V119c0-4 .84-4.8 3.66-4.8 2.08 0 5.64 1.04 13.94 9.05 9.5 9.5 11.06 13.75 16.4 13.75h14c4 0 6-2 4.85-5.95-1.27-3.93-5.8-9.64-11.81-16.4-3.27-3.86-8.16-8.01-9.64-10.09-2.08-2.67-1.49-3.86 0-6.23 0 0 17.05-24.03 18.83-32.18z"/></g></svg>